<?xml version="1.0" encoding="utf-8"?>
<svg xmlns="http://www.w3.org/2000/svg" xmlns:xlink="http://www.w3.org/1999/xlink" width="800" height="300" viewBox="0 0 3200 1200">
<defs>
  <clipPath id="clip930">
    <rect x="0" y="0" width="3200" height="1200"/>
  </clipPath>
</defs>
<path clip-path="url(#clip930)" d="M0 1200 L3200 1200 L3200 0 L0 0  Z" fill="#ffffff" fill-rule="evenodd" fill-opacity="1"/>
<defs>
  <clipPath id="clip931">
    <rect x="640" y="0" width="2241" height="1200"/>
  </clipPath>
</defs>
<path clip-path="url(#clip930)" d="M376.409 920.372 L1444.48 920.372 L1444.48 188.976 L376.409 188.976  Z" fill="#ffffff" fill-rule="evenodd" fill-opacity="1"/>
<defs>
  <clipPath id="clip932">
    <rect x="376" y="188" width="1069" height="732"/>
  </clipPath>
</defs>
<polyline clip-path="url(#clip932)" style="stroke:#000000; stroke-linecap:round; stroke-linejoin:round; stroke-width:2; stroke-opacity:0.1; fill:none" points="376.409,920.372 376.409,188.976 "/>
<polyline clip-path="url(#clip932)" style="stroke:#000000; stroke-linecap:round; stroke-linejoin:round; stroke-width:2; stroke-opacity:0.1; fill:none" points="643.426,920.372 643.426,188.976 "/>
<polyline clip-path="url(#clip932)" style="stroke:#000000; stroke-linecap:round; stroke-linejoin:round; stroke-width:2; stroke-opacity:0.1; fill:none" points="910.443,920.372 910.443,188.976 "/>
<polyline clip-path="url(#clip932)" style="stroke:#000000; stroke-linecap:round; stroke-linejoin:round; stroke-width:2; stroke-opacity:0.1; fill:none" points="1177.46,920.372 1177.46,188.976 "/>
<polyline clip-path="url(#clip932)" style="stroke:#000000; stroke-linecap:round; stroke-linejoin:round; stroke-width:2; stroke-opacity:0.1; fill:none" points="1444.48,920.372 1444.48,188.976 "/>
<polyline clip-path="url(#clip932)" style="stroke:#000000; stroke-linecap:round; stroke-linejoin:round; stroke-width:2; stroke-opacity:0.1; fill:none" points="376.409,920.372 1444.48,920.372 "/>
<polyline clip-path="url(#clip932)" style="stroke:#000000; stroke-linecap:round; stroke-linejoin:round; stroke-width:2; stroke-opacity:0.1; fill:none" points="376.409,774.093 1444.48,774.093 "/>
<polyline clip-path="url(#clip932)" style="stroke:#000000; stroke-linecap:round; stroke-linejoin:round; stroke-width:2; stroke-opacity:0.1; fill:none" points="376.409,627.813 1444.48,627.813 "/>
<polyline clip-path="url(#clip932)" style="stroke:#000000; stroke-linecap:round; stroke-linejoin:round; stroke-width:2; stroke-opacity:0.1; fill:none" points="376.409,481.534 1444.48,481.534 "/>
<polyline clip-path="url(#clip932)" style="stroke:#000000; stroke-linecap:round; stroke-linejoin:round; stroke-width:2; stroke-opacity:0.1; fill:none" points="376.409,335.255 1444.48,335.255 "/>
<polyline clip-path="url(#clip932)" style="stroke:#000000; stroke-linecap:round; stroke-linejoin:round; stroke-width:2; stroke-opacity:0.1; fill:none" points="376.409,188.976 1444.48,188.976 "/>
<polyline clip-path="url(#clip930)" style="stroke:#000000; stroke-linecap:round; stroke-linejoin:round; stroke-width:4; stroke-opacity:1; fill:none" points="376.409,920.372 1444.48,920.372 "/>
<polyline clip-path="url(#clip930)" style="stroke:#000000; stroke-linecap:round; stroke-linejoin:round; stroke-width:4; stroke-opacity:1; fill:none" points="376.409,920.372 376.409,939.269 "/>
<polyline clip-path="url(#clip930)" style="stroke:#000000; stroke-linecap:round; stroke-linejoin:round; stroke-width:4; stroke-opacity:1; fill:none" points="643.426,920.372 643.426,939.269 "/>
<polyline clip-path="url(#clip930)" style="stroke:#000000; stroke-linecap:round; stroke-linejoin:round; stroke-width:4; stroke-opacity:1; fill:none" points="910.443,920.372 910.443,939.269 "/>
<polyline clip-path="url(#clip930)" style="stroke:#000000; stroke-linecap:round; stroke-linejoin:round; stroke-width:4; stroke-opacity:1; fill:none" points="1177.46,920.372 1177.46,939.269 "/>
<polyline clip-path="url(#clip930)" style="stroke:#000000; stroke-linecap:round; stroke-linejoin:round; stroke-width:4; stroke-opacity:1; fill:none" points="1444.48,920.372 1444.48,939.269 "/>
<g clip-path="url(#clip930)">
<text style="fill:#000000; fill-opacity:1; font-family:Arial,Helvetica Neue,Helvetica,sans-serif; font-size:59px; text-anchor:middle;" transform="rotate(0, 376.409, 1011.71)" x="376.409" y="1011.71">1.0</text>
</g>
<g clip-path="url(#clip930)">
<text style="fill:#000000; fill-opacity:1; font-family:Arial,Helvetica Neue,Helvetica,sans-serif; font-size:59px; text-anchor:middle;" transform="rotate(0, 643.426, 1011.71)" x="643.426" y="1011.71">1.5</text>
</g>
<g clip-path="url(#clip930)">
<text style="fill:#000000; fill-opacity:1; font-family:Arial,Helvetica Neue,Helvetica,sans-serif; font-size:59px; text-anchor:middle;" transform="rotate(0, 910.443, 1011.71)" x="910.443" y="1011.71">2.0</text>
</g>
<g clip-path="url(#clip930)">
<text style="fill:#000000; fill-opacity:1; font-family:Arial,Helvetica Neue,Helvetica,sans-serif; font-size:59px; text-anchor:middle;" transform="rotate(0, 1177.46, 1011.71)" x="1177.46" y="1011.71">2.5</text>
</g>
<g clip-path="url(#clip930)">
<text style="fill:#000000; fill-opacity:1; font-family:Arial,Helvetica Neue,Helvetica,sans-serif; font-size:59px; text-anchor:middle;" transform="rotate(0, 1444.48, 1011.71)" x="1444.48" y="1011.71">3.0</text>
</g>
<g clip-path="url(#clip930)">
<text style="fill:#000000; fill-opacity:1; font-family:Arial,Helvetica Neue,Helvetica,sans-serif; font-size:59px; text-anchor:middle;" transform="rotate(0, 910.443, 1085.52)" x="910.443" y="1085.52">clade II R₀ in the previous epidemic</text>
</g>
<polyline clip-path="url(#clip930)" style="stroke:#000000; stroke-linecap:round; stroke-linejoin:round; stroke-width:4; stroke-opacity:1; fill:none" points="376.409,920.372 376.409,188.976 "/>
<polyline clip-path="url(#clip930)" style="stroke:#000000; stroke-linecap:round; stroke-linejoin:round; stroke-width:4; stroke-opacity:1; fill:none" points="376.409,920.372 357.512,920.372 "/>
<polyline clip-path="url(#clip930)" style="stroke:#000000; stroke-linecap:round; stroke-linejoin:round; stroke-width:4; stroke-opacity:1; fill:none" points="376.409,774.093 357.512,774.093 "/>
<polyline clip-path="url(#clip930)" style="stroke:#000000; stroke-linecap:round; stroke-linejoin:round; stroke-width:4; stroke-opacity:1; fill:none" points="376.409,627.813 357.512,627.813 "/>
<polyline clip-path="url(#clip930)" style="stroke:#000000; stroke-linecap:round; stroke-linejoin:round; stroke-width:4; stroke-opacity:1; fill:none" points="376.409,481.534 357.512,481.534 "/>
<polyline clip-path="url(#clip930)" style="stroke:#000000; stroke-linecap:round; stroke-linejoin:round; stroke-width:4; stroke-opacity:1; fill:none" points="376.409,335.255 357.512,335.255 "/>
<polyline clip-path="url(#clip930)" style="stroke:#000000; stroke-linecap:round; stroke-linejoin:round; stroke-width:4; stroke-opacity:1; fill:none" points="376.409,188.976 357.512,188.976 "/>
<g clip-path="url(#clip930)">
<text style="fill:#000000; fill-opacity:1; font-family:Arial,Helvetica Neue,Helvetica,sans-serif; font-size:59px; text-anchor:middle;" transform="rotate(0, 287.683, 941.872)" x="287.683" y="941.872">0</text>
</g>
<g clip-path="url(#clip930)">
<text style="fill:#000000; fill-opacity:1; font-family:Arial,Helvetica Neue,Helvetica,sans-serif; font-size:59px; text-anchor:middle;" transform="rotate(0, 270.956, 795.593)" x="270.956" y="795.593">20</text>
</g>
<g clip-path="url(#clip930)">
<text style="fill:#000000; fill-opacity:1; font-family:Arial,Helvetica Neue,Helvetica,sans-serif; font-size:59px; text-anchor:middle;" transform="rotate(0, 270.956, 649.313)" x="270.956" y="649.313">40</text>
</g>
<g clip-path="url(#clip930)">
<text style="fill:#000000; fill-opacity:1; font-family:Arial,Helvetica Neue,Helvetica,sans-serif; font-size:59px; text-anchor:middle;" transform="rotate(0, 270.956, 503.034)" x="270.956" y="503.034">60</text>
</g>
<g clip-path="url(#clip930)">
<text style="fill:#000000; fill-opacity:1; font-family:Arial,Helvetica Neue,Helvetica,sans-serif; font-size:59px; text-anchor:middle;" transform="rotate(0, 270.956, 356.755)" x="270.956" y="356.755">80</text>
</g>
<g clip-path="url(#clip930)">
<text style="fill:#000000; fill-opacity:1; font-family:Arial,Helvetica Neue,Helvetica,sans-serif; font-size:59px; text-anchor:middle;" transform="rotate(0, 254.23, 210.476)" x="254.23" y="210.476">100</text>
</g>
<g clip-path="url(#clip930)">
<text style="fill:#000000; fill-opacity:1; font-family:Arial,Helvetica Neue,Helvetica,sans-serif; font-size:59px; text-anchor:middle;" transform="rotate(-90, 168.776, 554.674)" x="168.776" y="554.674">effective susceptible proportion %</text>
</g>
<polyline clip-path="url(#clip932)" style="stroke:#000003; stroke-linecap:round; stroke-linejoin:round; stroke-width:6; stroke-opacity:0.8; fill:none" points="-157.623,191.192 -149.031,191.192 -140.437,191.192 -131.844,191.192 -123.25,191.192 -114.657,191.192 -106.063,191.192 -97.4696,191.192 -88.876,191.192 -80.2825,191.192 -71.6889,191.192 -63.0954,191.192 -54.5018,191.192 -45.9083,191.192 -37.3147,191.192 -28.7212,191.192 -20.1276,191.192 -11.534,191.192 -2.94049,191.192 5.65306,191.192 14.2466,191.192 22.8402,191.192 31.4337,191.192 40.0273,191.192 48.6208,191.192 57.2144,191.192 65.8079,191.192 74.4015,191.192 82.995,191.192 91.5886,191.192 100.182,191.192 108.776,191.192 117.369,191.192 125.963,191.192 134.556,191.192 143.15,191.192 151.743,191.192 160.337,191.192 168.931,191.192 177.524,191.192 186.118,191.192 194.711,191.192 203.305,191.192 211.898,191.192 220.492,191.192 229.085,191.192 237.679,191.192 246.273,191.192 254.866,191.192 263.46,191.192 272.053,191.192 280.647,191.192 289.24,191.192 297.834,191.192 306.427,191.192 315.021,191.192 323.615,191.192 332.208,191.192 340.802,191.192 349.395,191.192 357.989,191.192 366.582,191.192 375.176,191.192 383.769,205.926 392.363,228.54 400.957,248.573 409.55,266.619 418.144,285.693 426.737,301.857 435.331,317.892 443.924,333.747 452.518,348.439 461.111,363.013 469.705,376.606 478.299,389.342 486.892,402.047 495.486,413.998 504.079,425.276 512.673,436.561 521.266,447.238 529.86,457.913 538.453,468.036 547.047,477.656 555.64,486.818 564.234,496.009 572.828,504.774 581.421,513.146 590.015,521.548 598.608,529.582 607.202,537.275 615.795,544.653 624.389,552.067 632.982,559.182 641.576,566.017 650.17,572.591 658.763,579.203 667.357,585.565 675.95,591.693 684.544,597.601 693.137,603.546 701.731,609.279 710.324,614.586 718.918,620.158 727.512,625.326 736.105,630.531 744.699,635.365 753.292,640.241 761.886,644.961 770.479,649.715 779.073,654.144 787.666,658.609 796.26,662.938 804.854,667.137 813.447,671.213 822.041,675.321 830.634,679.163 839.228,683.039 847.821,686.805 856.415,690.465 865.008,694.155 873.602,697.615 882.196,701.105 890.789,704.501 899.383,707.807 907.976,711.025 916.57,714.159 925.163,717.321 933.757,720.296 942.35,723.299 950.944,726.226 959.538,729.08 968.131,731.863 976.725,734.671 985.318,737.319 993.912,739.993 1002.51,742.602 1011.1,745.149 1019.69,747.635 1028.29,750.064 1036.88,752.437 1045.47,754.833 1054.07,757.173 1062.66,759.386 1071.25,761.622 1079.85,763.808 1088.44,766.014 1097.03,768.104 1105.63,770.214 1114.22,772.213 1122.82,774.232 1131.41,776.208 1140,778.141 1148.6,780.034 1157.19,781.944 1165.78,783.758 1174.38,785.589 1182.97,787.328 1191.56,789.085 1200.16,790.806 1208.75,792.492 1217.34,794.194 1225.94,795.812 1234.53,797.398 1243.12,799 1251.72,800.57 1260.31,802.109 1268.91,803.618 1277.5,805.097 1286.09,806.548 1294.69,808.013 1303.28,809.409 1311.87,810.818 1320.47,812.201 1329.06,813.557 1337.65,814.888 1346.25,816.194 1354.84,817.476 1363.43,818.77 1372.03,820.005 1380.62,821.251 1389.22,822.475 1397.81,823.677 1406.4,824.857 1415,826.016 1423.59,827.185 1432.18,828.303 1440.78,829.431 "/>
<polyline clip-path="url(#clip932)" style="stroke:#3e0966; stroke-linecap:round; stroke-linejoin:round; stroke-width:6; stroke-opacity:0.8; fill:none" points="-157.623,253.902 -149.031,253.902 -140.437,253.902 -131.844,253.902 -123.25,253.902 -114.657,253.902 -106.063,253.902 -97.4696,253.902 -88.876,253.902 -80.2825,253.902 -71.6889,253.902 -63.0954,253.902 -54.5018,253.902 -45.9083,253.902 -37.3147,253.902 -28.7212,253.902 -20.1276,253.902 -11.534,253.902 -2.94049,253.902 5.65306,253.902 14.2466,253.902 22.8402,253.902 31.4337,253.902 40.0273,253.902 48.6208,253.902 57.2144,253.902 65.8079,253.902 74.4015,253.902 82.995,253.902 91.5886,253.902 100.182,253.902 108.776,253.902 117.369,253.902 125.963,253.902 134.556,253.902 143.15,253.902 151.743,253.902 160.337,253.902 168.931,253.902 177.524,253.902 186.118,253.902 194.711,253.902 203.305,253.902 211.898,253.902 220.492,253.902 229.085,253.902 237.679,253.902 246.273,253.902 254.866,253.902 263.46,253.902 272.053,253.902 280.647,253.902 289.24,253.902 297.834,253.902 306.427,253.902 315.021,253.902 323.615,253.902 332.208,253.902 340.802,253.902 349.395,253.902 357.989,253.902 366.582,253.902 375.176,253.902 383.769,267.368 392.363,288.038 400.957,306.347 409.55,322.842 418.144,340.275 426.737,355.049 435.331,369.705 443.924,384.197 452.518,397.625 461.111,410.946 469.705,423.37 478.299,435.01 486.892,446.623 495.486,457.546 504.079,467.854 512.673,478.169 521.266,487.927 529.86,497.685 538.453,506.937 547.047,515.73 555.64,524.104 564.234,532.504 572.828,540.515 581.421,548.167 590.015,555.847 598.608,563.19 607.202,570.222 615.795,576.965 624.389,583.742 632.982,590.244 641.576,596.492 650.17,602.5 658.763,608.544 667.357,614.359 675.95,619.96 684.544,625.36 693.137,630.793 701.731,636.033 710.324,640.883 718.918,645.976 727.512,650.7 736.105,655.457 744.699,659.875 753.292,664.332 761.886,668.647 770.479,672.991 779.073,677.039 787.666,681.12 796.26,685.077 804.854,688.915 813.447,692.641 822.041,696.395 830.634,699.907 839.228,703.449 847.821,706.891 856.415,710.237 865.008,713.609 873.602,716.772 882.196,719.962 890.789,723.066 899.383,726.087 907.976,729.028 916.57,731.893 925.163,734.784 933.757,737.502 942.35,740.247 950.944,742.922 959.538,745.531 968.131,748.075 976.725,750.641 985.318,753.062 993.912,755.506 1002.51,757.89 1011.1,760.218 1019.69,762.491 1028.29,764.711 1036.88,766.879 1045.47,769.069 1054.07,771.208 1062.66,773.231 1071.25,775.275 1079.85,777.273 1088.44,779.289 1097.03,781.199 1105.63,783.127 1114.22,784.954 1122.82,786.8 1131.41,788.606 1140,790.373 1148.6,792.103 1157.19,793.849 1165.78,795.507 1174.38,797.181 1182.97,798.77 1191.56,800.376 1200.16,801.949 1208.75,803.49 1217.34,805.045 1225.94,806.524 1234.53,807.974 1243.12,809.438 1251.72,810.873 1260.31,812.279 1268.91,813.658 1277.5,815.011 1286.09,816.337 1294.69,817.676 1303.28,818.952 1311.87,820.24 1320.47,821.503 1329.06,822.743 1337.65,823.959 1346.25,825.153 1354.84,826.325 1363.43,827.507 1372.03,828.636 1380.62,829.776 1389.22,830.895 1397.81,831.993 1406.4,833.071 1415,834.13 1423.59,835.199 1432.18,836.22 1440.78,837.251 "/>
<polyline clip-path="url(#clip932)" style="stroke:#8e2468; stroke-linecap:round; stroke-linejoin:round; stroke-width:6; stroke-opacity:0.8; fill:none" points="-157.623,379.321 -149.031,379.321 -140.437,379.321 -131.844,379.321 -123.25,379.321 -114.657,379.321 -106.063,379.321 -97.4696,379.321 -88.876,379.321 -80.2825,379.321 -71.6889,379.321 -63.0954,379.321 -54.5018,379.321 -45.9083,379.321 -37.3147,379.321 -28.7212,379.321 -20.1276,379.321 -11.534,379.321 -2.94049,379.321 5.65306,379.321 14.2466,379.321 22.8402,379.321 31.4337,379.321 40.0273,379.321 48.6208,379.321 57.2144,379.321 65.8079,379.321 74.4015,379.321 82.995,379.321 91.5886,379.321 100.182,379.321 108.776,379.321 117.369,379.321 125.963,379.321 134.556,379.321 143.15,379.321 151.743,379.321 160.337,379.321 168.931,379.321 177.524,379.321 186.118,379.321 194.711,379.321 203.305,379.321 211.898,379.321 220.492,379.321 229.085,379.321 237.679,379.321 246.273,379.321 254.866,379.321 263.46,379.321 272.053,379.321 280.647,379.321 289.24,379.321 297.834,379.321 306.427,379.321 315.021,379.321 323.615,379.321 332.208,379.321 340.802,379.321 349.395,379.321 357.989,379.321 366.582,379.321 375.176,379.321 383.769,390.253 392.363,407.033 400.957,421.897 409.55,435.287 418.144,449.44 426.737,461.433 435.331,473.332 443.924,485.096 452.518,495.998 461.111,506.811 469.705,516.897 478.299,526.347 486.892,535.775 495.486,544.642 504.079,553.011 512.673,561.384 521.266,569.306 529.86,577.228 538.453,584.738 547.047,591.877 555.64,598.675 564.234,605.495 572.828,611.998 581.421,618.21 590.015,624.444 598.608,630.406 607.202,636.114 615.795,641.589 624.389,647.09 632.982,652.369 641.576,657.441 650.17,662.319 658.763,667.225 667.357,671.945 675.95,676.492 684.544,680.876 693.137,685.287 701.731,689.541 710.324,693.479 718.918,697.613 727.512,701.448 736.105,705.31 744.699,708.897 753.292,712.514 761.886,716.017 770.479,719.544 779.073,722.83 787.666,726.144 796.26,729.356 804.854,732.472 813.447,735.496 822.041,738.544 830.634,741.395 839.228,744.271 847.821,747.065 856.415,749.781 865.008,752.519 873.602,755.086 882.196,757.676 890.789,760.196 899.383,762.648 907.976,765.036 916.57,767.362 925.163,769.708 933.757,771.915 942.35,774.144 950.944,776.315 959.538,778.433 968.131,780.498 976.725,782.582 985.318,784.547 993.912,786.531 1002.51,788.467 1011.1,790.356 1019.69,792.201 1028.29,794.003 1036.88,795.764 1045.47,797.542 1054.07,799.278 1062.66,800.92 1071.25,802.579 1079.85,804.202 1088.44,805.839 1097.03,807.389 1105.63,808.954 1114.22,810.438 1122.82,811.936 1131.41,813.402 1140,814.837 1148.6,816.241 1157.19,817.659 1165.78,819.004 1174.38,820.363 1182.97,821.654 1191.56,822.957 1200.16,824.234 1208.75,825.485 1217.34,826.748 1225.94,827.948 1234.53,829.125 1243.12,830.314 1251.72,831.479 1260.31,832.621 1268.91,833.74 1277.5,834.838 1286.09,835.915 1294.69,837.002 1303.28,838.037 1311.87,839.083 1320.47,840.109 1329.06,841.115 1337.65,842.103 1346.25,843.072 1354.84,844.023 1363.43,844.983 1372.03,845.899 1380.62,846.824 1389.22,847.733 1397.81,848.624 1406.4,849.5 1415,850.36 1423.59,851.227 1432.18,852.056 1440.78,852.893 "/>
<polyline clip-path="url(#clip932)" style="stroke:#d74b3e; stroke-linecap:round; stroke-linejoin:round; stroke-width:6; stroke-opacity:0.8; fill:none" points="-157.623,504.739 -149.031,504.739 -140.437,504.739 -131.844,504.739 -123.25,504.739 -114.657,504.739 -106.063,504.739 -97.4696,504.739 -88.876,504.739 -80.2825,504.739 -71.6889,504.739 -63.0954,504.739 -54.5018,504.739 -45.9083,504.739 -37.3147,504.739 -28.7212,504.739 -20.1276,504.739 -11.534,504.739 -2.94049,504.739 5.65306,504.739 14.2466,504.739 22.8402,504.739 31.4337,504.739 40.0273,504.739 48.6208,504.739 57.2144,504.739 65.8079,504.739 74.4015,504.739 82.995,504.739 91.5886,504.739 100.182,504.739 108.776,504.739 117.369,504.739 125.963,504.739 134.556,504.739 143.15,504.739 151.743,504.739 160.337,504.739 168.931,504.739 177.524,504.739 186.118,504.739 194.711,504.739 203.305,504.739 211.898,504.739 220.492,504.739 229.085,504.739 237.679,504.739 246.273,504.739 254.866,504.739 263.46,504.739 272.053,504.739 280.647,504.739 289.24,504.739 297.834,504.739 306.427,504.739 315.021,504.739 323.615,504.739 332.208,504.739 340.802,504.739 349.395,504.739 357.989,504.739 366.582,504.739 375.176,504.739 383.769,513.138 392.363,526.028 400.957,537.446 409.55,547.733 418.144,558.605 426.737,567.818 435.331,576.958 443.924,585.996 452.518,594.37 461.111,602.677 469.705,610.425 478.299,617.684 486.892,624.927 495.486,631.738 504.079,638.167 512.673,644.599 521.266,650.685 529.86,656.77 538.453,662.54 547.047,668.024 555.64,673.246 564.234,678.485 572.828,683.481 581.421,688.253 590.015,693.042 598.608,697.621 607.202,702.007 615.795,706.212 624.389,710.438 632.982,714.493 641.576,718.389 650.17,722.137 658.763,725.906 667.357,729.532 675.95,733.025 684.544,736.393 693.137,739.781 701.731,743.049 710.324,746.074 718.918,749.25 727.512,752.196 736.105,755.162 744.699,757.918 753.292,760.697 761.886,763.388 770.479,766.097 779.073,768.622 787.666,771.167 796.26,773.634 804.854,776.028 813.447,778.351 822.041,780.693 830.634,782.883 839.228,785.092 847.821,787.238 856.415,789.325 865.008,791.428 873.602,793.4 882.196,795.39 890.789,797.326 899.383,799.21 907.976,801.044 916.57,802.83 925.163,804.633 933.757,806.328 942.35,808.04 950.944,809.709 959.538,811.335 968.131,812.922 976.725,814.522 985.318,816.032 993.912,817.556 1002.51,819.043 1011.1,820.495 1019.69,821.912 1028.29,823.296 1036.88,824.649 1045.47,826.014 1054.07,827.348 1062.66,828.61 1071.25,829.884 1079.85,831.131 1088.44,832.388 1097.03,833.579 1105.63,834.781 1114.22,835.921 1122.82,837.072 1131.41,838.198 1140,839.3 1148.6,840.379 1157.19,841.468 1165.78,842.502 1174.38,843.546 1182.97,844.537 1191.56,845.538 1200.16,846.519 1208.75,847.48 1217.34,848.45 1225.94,849.373 1234.53,850.277 1243.12,851.19 1251.72,852.085 1260.31,852.962 1268.91,853.822 1277.5,854.665 1286.09,855.492 1294.69,856.327 1303.28,857.123 1311.87,857.926 1320.47,858.714 1329.06,859.487 1337.65,860.246 1346.25,860.99 1354.84,861.721 1363.43,862.459 1372.03,863.162 1380.62,863.873 1389.22,864.571 1397.81,865.256 1406.4,865.928 1415,866.589 1423.59,867.255 1432.18,867.892 1440.78,868.535 "/>
<polyline clip-path="url(#clip932)" style="stroke:#fb9b06; stroke-linecap:round; stroke-linejoin:round; stroke-width:6; stroke-opacity:0.8; fill:none" points="-157.623,630.158 -149.031,630.158 -140.437,630.158 -131.844,630.158 -123.25,630.158 -114.657,630.158 -106.063,630.158 -97.4696,630.158 -88.876,630.158 -80.2825,630.158 -71.6889,630.158 -63.0954,630.158 -54.5018,630.158 -45.9083,630.158 -37.3147,630.158 -28.7212,630.158 -20.1276,630.158 -11.534,630.158 -2.94049,630.158 5.65306,630.158 14.2466,630.158 22.8402,630.158 31.4337,630.158 40.0273,630.158 48.6208,630.158 57.2144,630.158 65.8079,630.158 74.4015,630.158 82.995,630.158 91.5886,630.158 100.182,630.158 108.776,630.158 117.369,630.158 125.963,630.158 134.556,630.158 143.15,630.158 151.743,630.158 160.337,630.158 168.931,630.158 177.524,630.158 186.118,630.158 194.711,630.158 203.305,630.158 211.898,630.158 220.492,630.158 229.085,630.158 237.679,630.158 246.273,630.158 254.866,630.158 263.46,630.158 272.053,630.158 280.647,630.158 289.24,630.158 297.834,630.158 306.427,630.158 315.021,630.158 323.615,630.158 332.208,630.158 340.802,630.158 349.395,630.158 357.989,630.158 366.582,630.158 375.176,630.158 383.769,636.022 392.363,645.023 400.957,652.996 409.55,660.178 418.144,667.769 426.737,674.203 435.331,680.585 443.924,686.895 452.518,692.742 461.111,698.543 469.705,703.953 478.299,709.022 486.892,714.078 495.486,718.835 504.079,723.324 512.673,727.815 521.266,732.064 529.86,736.313 538.453,740.342 547.047,744.171 555.64,747.817 564.234,751.475 572.828,754.964 581.421,758.296 590.015,761.64 598.608,764.837 607.202,767.899 615.795,770.836 624.389,773.787 632.982,776.618 641.576,779.338 650.17,781.955 658.763,784.587 667.357,787.119 675.95,789.558 684.544,791.909 693.137,794.275 701.731,796.557 710.324,798.669 718.918,800.887 727.512,802.943 736.105,805.015 744.699,806.939 753.292,808.879 761.886,810.758 770.479,812.65 779.073,814.413 787.666,816.19 796.26,817.913 804.854,819.584 813.447,821.206 822.041,822.841 830.634,824.37 839.228,825.913 847.821,827.412 856.415,828.869 865.008,830.337 873.602,831.714 882.196,833.104 890.789,834.455 899.383,835.771 907.976,837.051 916.57,838.299 925.163,839.558 933.757,840.741 942.35,841.937 950.944,843.102 959.538,844.237 968.131,845.345 976.725,846.463 985.318,847.517 993.912,848.581 1002.51,849.619 1011.1,850.633 1019.69,851.623 1028.29,852.589 1036.88,853.534 1045.47,854.487 1054.07,855.418 1062.66,856.299 1071.25,857.189 1079.85,858.059 1088.44,858.937 1097.03,859.769 1105.63,860.609 1114.22,861.404 1122.82,862.208 1131.41,862.994 1140,863.764 1148.6,864.517 1157.19,865.278 1165.78,865.999 1174.38,866.728 1182.97,867.42 1191.56,868.12 1200.16,868.805 1208.75,869.476 1217.34,870.153 1225.94,870.797 1234.53,871.428 1243.12,872.066 1251.72,872.691 1260.31,873.303 1268.91,873.904 1277.5,874.492 1286.09,875.07 1294.69,875.653 1303.28,876.208 1311.87,876.769 1320.47,877.32 1329.06,877.859 1337.65,878.389 1346.25,878.909 1354.84,879.419 1363.43,879.934 1372.03,880.426 1380.62,880.922 1389.22,881.409 1397.81,881.887 1406.4,882.357 1415,882.818 1423.59,883.283 1432.18,883.728 1440.78,884.177 "/>
<path clip-path="url(#clip930)" d="M1082.52 563.914 L1731.31 563.914 L1731.31 211.816 L1082.52 211.816  Z" fill="#000000" fill-rule="evenodd" fill-opacity="0"/>
<polyline clip-path="url(#clip930)" style="stroke:#000000; stroke-linecap:round; stroke-linejoin:round; stroke-width:4; stroke-opacity:0; fill:none" points="1082.52,563.914 1731.31,563.914 1731.31,211.816 1082.52,211.816 1082.52,563.914 "/>
<g clip-path="url(#clip930)">
<text style="fill:#000000; fill-opacity:1; font-family:Arial,Helvetica Neue,Helvetica,sans-serif; font-size:48px; text-anchor:end;" transform="rotate(0, 1412.85, 279.616)" x="1412.85" y="279.616">                  vaccine uptake</text>
</g>
<polyline clip-path="url(#clip930)" style="stroke:#000003; stroke-linecap:round; stroke-linejoin:round; stroke-width:6; stroke-opacity:0.8; fill:none" points="1094.39,312.416 1165.59,312.416 "/>
<g clip-path="url(#clip930)">
<text style="fill:#000000; fill-opacity:1; font-family:Arial,Helvetica Neue,Helvetica,sans-serif; font-size:48px; text-anchor:start;" transform="rotate(0, 1177.46, 329.916)" x="1177.46" y="329.916">0%</text>
</g>
<polyline clip-path="url(#clip930)" style="stroke:#3e0966; stroke-linecap:round; stroke-linejoin:round; stroke-width:6; stroke-opacity:0.8; fill:none" points="1094.39,362.715 1165.59,362.715 "/>
<g clip-path="url(#clip930)">
<text style="fill:#000000; fill-opacity:1; font-family:Arial,Helvetica Neue,Helvetica,sans-serif; font-size:48px; text-anchor:start;" transform="rotate(0, 1177.46, 380.215)" x="1177.46" y="380.215">10%</text>
</g>
<polyline clip-path="url(#clip930)" style="stroke:#8e2468; stroke-linecap:round; stroke-linejoin:round; stroke-width:6; stroke-opacity:0.8; fill:none" points="1094.39,413.015 1165.59,413.015 "/>
<g clip-path="url(#clip930)">
<text style="fill:#000000; fill-opacity:1; font-family:Arial,Helvetica Neue,Helvetica,sans-serif; font-size:48px; text-anchor:start;" transform="rotate(0, 1177.46, 430.515)" x="1177.46" y="430.515">30%</text>
</g>
<polyline clip-path="url(#clip930)" style="stroke:#d74b3e; stroke-linecap:round; stroke-linejoin:round; stroke-width:6; stroke-opacity:0.8; fill:none" points="1094.39,463.315 1165.59,463.315 "/>
<g clip-path="url(#clip930)">
<text style="fill:#000000; fill-opacity:1; font-family:Arial,Helvetica Neue,Helvetica,sans-serif; font-size:48px; text-anchor:start;" transform="rotate(0, 1177.46, 480.815)" x="1177.46" y="480.815">50%</text>
</g>
<polyline clip-path="url(#clip930)" style="stroke:#fb9b06; stroke-linecap:round; stroke-linejoin:round; stroke-width:6; stroke-opacity:0.8; fill:none" points="1094.39,513.615 1165.59,513.615 "/>
<g clip-path="url(#clip930)">
<text style="fill:#000000; fill-opacity:1; font-family:Arial,Helvetica Neue,Helvetica,sans-serif; font-size:48px; text-anchor:start;" transform="rotate(0, 1177.46, 531.115)" x="1177.46" y="531.115">70%</text>
</g>
<path clip-path="url(#clip930)" d="M1942.96 920.372 L3011.02 920.372 L3011.02 188.976 L1942.96 188.976  Z" fill="#ffffff" fill-rule="evenodd" fill-opacity="1"/>
<defs>
  <clipPath id="clip933">
    <rect x="1942" y="188" width="1069" height="732"/>
  </clipPath>
</defs>
<polyline clip-path="url(#clip933)" style="stroke:#000000; stroke-linecap:round; stroke-linejoin:round; stroke-width:2; stroke-opacity:0.1; fill:none" points="1942.96,920.372 1942.96,188.976 "/>
<polyline clip-path="url(#clip933)" style="stroke:#000000; stroke-linecap:round; stroke-linejoin:round; stroke-width:2; stroke-opacity:0.1; fill:none" points="2209.97,920.372 2209.97,188.976 "/>
<polyline clip-path="url(#clip933)" style="stroke:#000000; stroke-linecap:round; stroke-linejoin:round; stroke-width:2; stroke-opacity:0.1; fill:none" points="2476.99,920.372 2476.99,188.976 "/>
<polyline clip-path="url(#clip933)" style="stroke:#000000; stroke-linecap:round; stroke-linejoin:round; stroke-width:2; stroke-opacity:0.1; fill:none" points="2744.01,920.372 2744.01,188.976 "/>
<polyline clip-path="url(#clip933)" style="stroke:#000000; stroke-linecap:round; stroke-linejoin:round; stroke-width:2; stroke-opacity:0.1; fill:none" points="3011.02,920.372 3011.02,188.976 "/>
<polyline clip-path="url(#clip933)" style="stroke:#000000; stroke-linecap:round; stroke-linejoin:round; stroke-width:2; stroke-opacity:0.1; fill:none" points="1942.96,920.372 3011.02,920.372 "/>
<polyline clip-path="url(#clip933)" style="stroke:#000000; stroke-linecap:round; stroke-linejoin:round; stroke-width:2; stroke-opacity:0.1; fill:none" points="1942.96,829.431 3011.02,829.431 "/>
<polyline clip-path="url(#clip933)" style="stroke:#000000; stroke-linecap:round; stroke-linejoin:round; stroke-width:2; stroke-opacity:0.1; fill:none" points="1942.96,738.489 3011.02,738.489 "/>
<polyline clip-path="url(#clip933)" style="stroke:#000000; stroke-linecap:round; stroke-linejoin:round; stroke-width:2; stroke-opacity:0.1; fill:none" points="1942.96,556.607 3011.02,556.607 "/>
<polyline clip-path="url(#clip933)" style="stroke:#000000; stroke-linecap:round; stroke-linejoin:round; stroke-width:2; stroke-opacity:0.1; fill:none" points="1942.96,374.725 3011.02,374.725 "/>
<polyline clip-path="url(#clip933)" style="stroke:#000000; stroke-linecap:round; stroke-linejoin:round; stroke-width:2; stroke-opacity:0.1; fill:none" points="1942.96,192.843 3011.02,192.843 "/>
<polyline clip-path="url(#clip930)" style="stroke:#000000; stroke-linecap:round; stroke-linejoin:round; stroke-width:4; stroke-opacity:1; fill:none" points="1942.96,920.372 3011.02,920.372 "/>
<polyline clip-path="url(#clip930)" style="stroke:#000000; stroke-linecap:round; stroke-linejoin:round; stroke-width:4; stroke-opacity:1; fill:none" points="1942.96,920.372 1942.96,939.269 "/>
<polyline clip-path="url(#clip930)" style="stroke:#000000; stroke-linecap:round; stroke-linejoin:round; stroke-width:4; stroke-opacity:1; fill:none" points="2209.97,920.372 2209.97,939.269 "/>
<polyline clip-path="url(#clip930)" style="stroke:#000000; stroke-linecap:round; stroke-linejoin:round; stroke-width:4; stroke-opacity:1; fill:none" points="2476.99,920.372 2476.99,939.269 "/>
<polyline clip-path="url(#clip930)" style="stroke:#000000; stroke-linecap:round; stroke-linejoin:round; stroke-width:4; stroke-opacity:1; fill:none" points="2744.01,920.372 2744.01,939.269 "/>
<polyline clip-path="url(#clip930)" style="stroke:#000000; stroke-linecap:round; stroke-linejoin:round; stroke-width:4; stroke-opacity:1; fill:none" points="3011.02,920.372 3011.02,939.269 "/>
<g clip-path="url(#clip930)">
<text style="fill:#000000; fill-opacity:1; font-family:Arial,Helvetica Neue,Helvetica,sans-serif; font-size:59px; text-anchor:middle;" transform="rotate(0, 1942.96, 1011.71)" x="1942.96" y="1011.71">1.0</text>
</g>
<g clip-path="url(#clip930)">
<text style="fill:#000000; fill-opacity:1; font-family:Arial,Helvetica Neue,Helvetica,sans-serif; font-size:59px; text-anchor:middle;" transform="rotate(0, 2209.97, 1011.71)" x="2209.97" y="1011.71">1.5</text>
</g>
<g clip-path="url(#clip930)">
<text style="fill:#000000; fill-opacity:1; font-family:Arial,Helvetica Neue,Helvetica,sans-serif; font-size:59px; text-anchor:middle;" transform="rotate(0, 2476.99, 1011.71)" x="2476.99" y="1011.71">2.0</text>
</g>
<g clip-path="url(#clip930)">
<text style="fill:#000000; fill-opacity:1; font-family:Arial,Helvetica Neue,Helvetica,sans-serif; font-size:59px; text-anchor:middle;" transform="rotate(0, 2744.01, 1011.71)" x="2744.01" y="1011.71">2.5</text>
</g>
<g clip-path="url(#clip930)">
<text style="fill:#000000; fill-opacity:1; font-family:Arial,Helvetica Neue,Helvetica,sans-serif; font-size:59px; text-anchor:middle;" transform="rotate(0, 3011.02, 1011.71)" x="3011.02" y="1011.71">3.0</text>
</g>
<g clip-path="url(#clip930)">
<text style="fill:#000000; fill-opacity:1; font-family:Arial,Helvetica Neue,Helvetica,sans-serif; font-size:59px; text-anchor:middle;" transform="rotate(0, 2476.99, 1085.52)" x="2476.99" y="1085.52">clade II R₀ in the previous epidemic</text>
</g>
<polyline clip-path="url(#clip930)" style="stroke:#000000; stroke-linecap:round; stroke-linejoin:round; stroke-width:4; stroke-opacity:1; fill:none" points="1942.96,920.372 1942.96,188.976 "/>
<polyline clip-path="url(#clip930)" style="stroke:#000000; stroke-linecap:round; stroke-linejoin:round; stroke-width:4; stroke-opacity:1; fill:none" points="1942.96,920.372 1924.06,920.372 "/>
<polyline clip-path="url(#clip930)" style="stroke:#000000; stroke-linecap:round; stroke-linejoin:round; stroke-width:4; stroke-opacity:1; fill:none" points="1942.96,829.431 1924.06,829.431 "/>
<polyline clip-path="url(#clip930)" style="stroke:#000000; stroke-linecap:round; stroke-linejoin:round; stroke-width:4; stroke-opacity:1; fill:none" points="1942.96,738.489 1924.06,738.489 "/>
<polyline clip-path="url(#clip930)" style="stroke:#000000; stroke-linecap:round; stroke-linejoin:round; stroke-width:4; stroke-opacity:1; fill:none" points="1942.96,556.607 1924.06,556.607 "/>
<polyline clip-path="url(#clip930)" style="stroke:#000000; stroke-linecap:round; stroke-linejoin:round; stroke-width:4; stroke-opacity:1; fill:none" points="1942.96,374.725 1924.06,374.725 "/>
<polyline clip-path="url(#clip930)" style="stroke:#000000; stroke-linecap:round; stroke-linejoin:round; stroke-width:4; stroke-opacity:1; fill:none" points="1942.96,192.843 1924.06,192.843 "/>
<g clip-path="url(#clip930)">
<text style="fill:#000000; fill-opacity:1; font-family:Arial,Helvetica Neue,Helvetica,sans-serif; font-size:59px; text-anchor:middle;" transform="rotate(0, 1854.23, 941.872)" x="1854.23" y="941.872">0</text>
</g>
<g clip-path="url(#clip930)">
<text style="fill:#000000; fill-opacity:1; font-family:Arial,Helvetica Neue,Helvetica,sans-serif; font-size:59px; text-anchor:middle;" transform="rotate(0, 1854.23, 850.931)" x="1854.23" y="850.931">1</text>
</g>
<g clip-path="url(#clip930)">
<text style="fill:#000000; fill-opacity:1; font-family:Arial,Helvetica Neue,Helvetica,sans-serif; font-size:59px; text-anchor:middle;" transform="rotate(0, 1854.23, 759.989)" x="1854.23" y="759.989">2</text>
</g>
<g clip-path="url(#clip930)">
<text style="fill:#000000; fill-opacity:1; font-family:Arial,Helvetica Neue,Helvetica,sans-serif; font-size:59px; text-anchor:middle;" transform="rotate(0, 1854.23, 578.107)" x="1854.23" y="578.107">4</text>
</g>
<g clip-path="url(#clip930)">
<text style="fill:#000000; fill-opacity:1; font-family:Arial,Helvetica Neue,Helvetica,sans-serif; font-size:59px; text-anchor:middle;" transform="rotate(0, 1854.23, 396.225)" x="1854.23" y="396.225">6</text>
</g>
<g clip-path="url(#clip930)">
<text style="fill:#000000; fill-opacity:1; font-family:Arial,Helvetica Neue,Helvetica,sans-serif; font-size:59px; text-anchor:middle;" transform="rotate(0, 1854.23, 214.343)" x="1854.23" y="214.343">8</text>
</g>
<g clip-path="url(#clip930)">
<text style="fill:#000000; fill-opacity:1; font-family:Arial,Helvetica Neue,Helvetica,sans-serif; font-size:59px; text-anchor:middle;" transform="rotate(-90, 1802.23, 554.674)" x="1802.23" y="554.674">clade I R₀ for epidemic takeoff</text>
</g>
<polyline clip-path="url(#clip933)" style="stroke:#000003; stroke-linecap:round; stroke-linejoin:round; stroke-width:6; stroke-opacity:0.8; fill:none" points="1408.92,829.154 1417.52,829.154 1426.11,829.154 1434.7,829.154 1443.3,829.154 1451.89,829.154 1460.48,829.154 1469.08,829.154 1477.67,829.154 1486.26,829.154 1494.86,829.154 1503.45,829.154 1512.05,829.154 1520.64,829.154 1529.23,829.154 1537.83,829.154 1546.42,829.154 1555.01,829.154 1563.61,829.154 1572.2,829.154 1580.79,829.154 1589.39,829.154 1597.98,829.154 1606.57,829.154 1615.17,829.154 1623.76,829.154 1632.36,829.154 1640.95,829.154 1649.54,829.154 1658.14,829.154 1666.73,829.154 1675.32,829.154 1683.92,829.154 1692.51,829.154 1701.1,829.154 1709.7,829.154 1718.29,829.154 1726.88,829.154 1735.48,829.154 1744.07,829.154 1752.66,829.154 1761.26,829.154 1769.85,829.154 1778.45,829.154 1787.04,829.154 1795.63,829.154 1804.23,829.154 1812.82,829.154 1821.41,829.154 1830.01,829.154 1838.6,829.154 1847.19,829.154 1855.79,829.154 1864.38,829.154 1872.97,829.154 1881.57,829.154 1890.16,829.154 1898.76,829.154 1907.35,829.154 1915.94,829.154 1924.54,829.154 1933.13,829.154 1941.72,829.154 1950.32,827.273 1958.91,824.23 1967.5,821.363 1976.1,818.63 1984.69,815.572 1993.28,812.834 2001.88,809.971 2010.47,806.988 2019.06,804.075 2027.66,801.034 2036.25,798.051 2044.85,795.117 2053.44,792.047 2062.03,789.018 2070.63,786.026 2079.22,782.893 2087.81,779.79 2096.41,776.545 2105,773.326 2113.59,770.131 2122.19,766.956 2130.78,763.633 2139.37,760.328 2147.97,757.037 2156.56,753.597 2165.16,750.168 2173.75,746.75 2182.34,743.34 2190.94,739.777 2199.53,736.219 2208.12,732.667 2216.72,729.119 2225.31,725.413 2233.9,721.708 2242.5,718.004 2251.09,714.3 2259.68,710.433 2268.28,706.564 2276.87,702.854 2285.47,698.816 2294.06,694.936 2302.65,690.888 2311.25,686.995 2319.84,682.933 2328.43,678.863 2337.03,674.622 2345.62,670.534 2354.21,666.272 2362.81,661.999 2371.4,657.714 2379.99,653.418 2388.59,648.942 2397.18,644.619 2405.77,640.116 2414.37,635.597 2422.96,631.063 2431.56,626.345 2440.15,621.778 2448.74,617.024 2457.34,612.252 2465.93,607.461 2474.52,602.651 2483.12,597.821 2491.71,592.798 2500.3,587.928 2508.9,582.862 2517.49,577.774 2526.08,572.663 2534.68,567.529 2543.27,562.193 2551.87,557.011 2560.46,551.626 2569.05,546.214 2577.65,540.776 2586.24,535.311 2594.83,529.82 2603.43,524.301 2612.02,518.57 2620.61,512.809 2629.21,507.205 2637.8,501.385 2646.39,495.535 2654.99,489.463 2663.58,483.55 2672.17,477.413 2680.77,471.435 2689.36,465.232 2697.96,458.994 2706.55,452.722 2715.14,446.415 2723.74,439.874 2732.33,433.496 2740.92,426.881 2749.52,420.43 2758.11,413.739 2766.7,407.01 2775.3,400.242 2783.89,393.228 2792.48,386.379 2801.08,379.492 2809.67,372.353 2818.27,365.171 2826.86,357.947 2835.45,350.679 2844.05,343.367 2852.64,336.011 2861.23,328.393 2869.83,320.947 2878.42,313.235 2887.01,305.476 2895.61,297.668 2904.2,289.812 2912.79,281.907 2921.39,273.953 2929.98,265.72 2938.58,257.665 2947.17,249.328 2955.76,240.938 2964.36,232.495 2972.95,223.997 2981.54,215.446 2990.14,206.6 2998.73,197.937 3007.32,188.976 "/>
<polyline clip-path="url(#clip933)" style="stroke:#3e0966; stroke-linecap:round; stroke-linejoin:round; stroke-width:6; stroke-opacity:0.8; fill:none" points="1408.92,820.571 1417.52,820.571 1426.11,820.571 1434.7,820.571 1443.3,820.571 1451.89,820.571 1460.48,820.571 1469.08,820.571 1477.67,820.571 1486.26,820.571 1494.86,820.571 1503.45,820.571 1512.05,820.571 1520.64,820.571 1529.23,820.571 1537.83,820.571 1546.42,820.571 1555.01,820.571 1563.61,820.571 1572.2,820.571 1580.79,820.571 1589.39,820.571 1597.98,820.571 1606.57,820.571 1615.17,820.571 1623.76,820.571 1632.36,820.571 1640.95,820.571 1649.54,820.571 1658.14,820.571 1666.73,820.571 1675.32,820.571 1683.92,820.571 1692.51,820.571 1701.1,820.571 1709.7,820.571 1718.29,820.571 1726.88,820.571 1735.48,820.571 1744.07,820.571 1752.66,820.571 1761.26,820.571 1769.85,820.571 1778.45,820.571 1787.04,820.571 1795.63,820.571 1804.23,820.571 1812.82,820.571 1821.41,820.571 1830.01,820.571 1838.6,820.571 1847.19,820.571 1855.79,820.571 1864.38,820.571 1872.97,820.571 1881.57,820.571 1890.16,820.571 1898.76,820.571 1907.35,820.571 1915.94,820.571 1924.54,820.571 1933.13,820.571 1941.72,820.571 1950.32,818.513 1958.91,815.184 1967.5,812.047 1976.1,809.057 1984.69,805.712 1993.28,802.715 2001.88,799.584 2010.47,796.319 2019.06,793.132 2027.66,789.805 2036.25,786.541 2044.85,783.332 2053.44,779.973 2062.03,776.659 2070.63,773.385 2079.22,769.957 2087.81,766.562 2096.41,763.012 2105,759.49 2113.59,755.994 2122.19,752.521 2130.78,748.885 2139.37,745.269 2147.97,741.669 2156.56,737.904 2165.16,734.153 2173.75,730.413 2182.34,726.683 2190.94,722.784 2199.53,718.892 2208.12,715.006 2216.72,711.124 2225.31,707.069 2233.9,703.015 2242.5,698.963 2251.09,694.91 2259.68,690.68 2268.28,686.447 2276.87,682.387 2285.47,677.97 2294.06,673.724 2302.65,669.295 2311.25,665.036 2319.84,660.592 2328.43,656.139 2337.03,651.499 2345.62,647.026 2354.21,642.363 2362.81,637.688 2371.4,633 2379.99,628.299 2388.59,623.403 2397.18,618.673 2405.77,613.746 2414.37,608.802 2422.96,603.842 2431.56,598.679 2440.15,593.682 2448.74,588.481 2457.34,583.26 2465.93,578.019 2474.52,572.756 2483.12,567.472 2491.71,561.976 2500.3,556.648 2508.9,551.105 2517.49,545.538 2526.08,539.946 2534.68,534.329 2543.27,528.491 2551.87,522.822 2560.46,516.93 2569.05,511.009 2577.65,505.059 2586.24,499.08 2594.83,493.072 2603.43,487.034 2612.02,480.764 2620.61,474.461 2629.21,468.33 2637.8,461.962 2646.39,455.561 2654.99,448.918 2663.58,442.448 2672.17,435.734 2680.77,429.194 2689.36,422.407 2697.96,415.582 2706.55,408.72 2715.14,401.82 2723.74,394.663 2732.33,387.685 2740.92,380.447 2749.52,373.389 2758.11,366.069 2766.7,358.707 2775.3,351.302 2783.89,343.628 2792.48,336.135 2801.08,328.599 2809.67,320.789 2818.27,312.932 2826.86,305.027 2835.45,297.075 2844.05,289.076 2852.64,281.028 2861.23,272.693 2869.83,264.546 2878.42,256.109 2887.01,247.619 2895.61,239.077 2904.2,230.481 2912.79,221.832 2921.39,213.13 2929.98,204.122 2938.58,195.31 2947.17,186.189 2955.76,177.009 2964.36,167.771 2972.95,158.474 2981.54,149.118 2990.14,139.439 2998.73,129.962 3007.32,120.158 "/>
<polyline clip-path="url(#clip933)" style="stroke:#8e2468; stroke-linecap:round; stroke-linejoin:round; stroke-width:6; stroke-opacity:0.8; fill:none" points="1408.92,797.437 1417.52,797.437 1426.11,797.437 1434.7,797.437 1443.3,797.437 1451.89,797.437 1460.48,797.437 1469.08,797.437 1477.67,797.437 1486.26,797.437 1494.86,797.437 1503.45,797.437 1512.05,797.437 1520.64,797.437 1529.23,797.437 1537.83,797.437 1546.42,797.437 1555.01,797.437 1563.61,797.437 1572.2,797.437 1580.79,797.437 1589.39,797.437 1597.98,797.437 1606.57,797.437 1615.17,797.437 1623.76,797.437 1632.36,797.437 1640.95,797.437 1649.54,797.437 1658.14,797.437 1666.73,797.437 1675.32,797.437 1683.92,797.437 1692.51,797.437 1701.1,797.437 1709.7,797.437 1718.29,797.437 1726.88,797.437 1735.48,797.437 1744.07,797.437 1752.66,797.437 1761.26,797.437 1769.85,797.437 1778.45,797.437 1787.04,797.437 1795.63,797.437 1804.23,797.437 1812.82,797.437 1821.41,797.437 1830.01,797.437 1838.6,797.437 1847.19,797.437 1855.79,797.437 1864.38,797.437 1872.97,797.437 1881.57,797.437 1890.16,797.437 1898.76,797.437 1907.35,797.437 1915.94,797.437 1924.54,797.437 1933.13,797.437 1941.72,797.437 1950.32,794.902 1958.91,790.8 1967.5,786.937 1976.1,783.253 1984.69,779.133 1993.28,775.442 2001.88,771.584 2010.47,767.563 2019.06,763.637 2027.66,759.539 2036.25,755.519 2044.85,751.565 2053.44,747.427 2062.03,743.346 2070.63,739.313 2079.22,735.09 2087.81,730.909 2096.41,726.535 2105,722.197 2113.59,717.891 2122.19,713.612 2130.78,709.134 2139.37,704.679 2147.97,700.245 2156.56,695.607 2165.16,690.987 2173.75,686.38 2182.34,681.785 2190.94,676.982 2199.53,672.188 2208.12,667.401 2216.72,662.619 2225.31,657.624 2233.9,652.631 2242.5,647.639 2251.09,642.647 2259.68,637.436 2268.28,632.222 2276.87,627.221 2285.47,621.78 2294.06,616.55 2302.65,611.094 2311.25,605.848 2319.84,600.374 2328.43,594.889 2337.03,589.172 2345.62,583.663 2354.21,577.919 2362.81,572.16 2371.4,566.386 2379.99,560.595 2388.59,554.564 2397.18,548.738 2405.77,542.669 2414.37,536.579 2422.96,530.468 2431.56,524.109 2440.15,517.954 2448.74,511.547 2457.34,505.116 2465.93,498.659 2474.52,492.177 2483.12,485.668 2491.71,478.898 2500.3,472.335 2508.9,465.507 2517.49,458.65 2526.08,451.761 2534.68,444.842 2543.27,437.651 2551.87,430.668 2560.46,423.409 2569.05,416.116 2577.65,408.787 2586.24,401.422 2594.83,394.022 2603.43,386.584 2612.02,378.86 2620.61,371.096 2629.21,363.544 2637.8,355.7 2646.39,347.815 2654.99,339.632 2663.58,331.663 2672.17,323.392 2680.77,315.336 2689.36,306.976 2697.96,298.569 2706.55,290.116 2715.14,281.616 2723.74,272.801 2732.33,264.205 2740.92,255.29 2749.52,246.595 2758.11,237.579 2766.7,228.51 2775.3,219.388 2783.89,209.935 2792.48,200.706 2801.08,191.423 2809.67,181.802 2818.27,172.123 2826.86,162.387 2835.45,152.592 2844.05,142.738 2852.64,132.824 2861.23,122.557 2869.83,112.522 2878.42,102.129 2887.01,91.671 2895.61,81.1484 2904.2,70.5604 2912.79,59.9068 2921.39,49.187 2929.98,38.0915 2938.58,27.2362 2947.17,16.0006 2955.76,4.69324 2964.36,-6.68626 2972.95,-18.1384 2981.54,-29.6635 2990.14,-41.5853 2998.73,-53.2599 3007.32,-65.3362 "/>
<polyline clip-path="url(#clip933)" style="stroke:#d74b3e; stroke-linecap:round; stroke-linejoin:round; stroke-width:6; stroke-opacity:0.8; fill:none" points="1408.92,760.341 1417.52,760.341 1426.11,760.341 1434.7,760.341 1443.3,760.341 1451.89,760.341 1460.48,760.341 1469.08,760.341 1477.67,760.341 1486.26,760.341 1494.86,760.341 1503.45,760.341 1512.05,760.341 1520.64,760.341 1529.23,760.341 1537.83,760.341 1546.42,760.341 1555.01,760.341 1563.61,760.341 1572.2,760.341 1580.79,760.341 1589.39,760.341 1597.98,760.341 1606.57,760.341 1615.17,760.341 1623.76,760.341 1632.36,760.341 1640.95,760.341 1649.54,760.341 1658.14,760.341 1666.73,760.341 1675.32,760.341 1683.92,760.341 1692.51,760.341 1701.1,760.341 1709.7,760.341 1718.29,760.341 1726.88,760.341 1735.48,760.341 1744.07,760.341 1752.66,760.341 1761.26,760.341 1769.85,760.341 1778.45,760.341 1787.04,760.341 1795.63,760.341 1804.23,760.341 1812.82,760.341 1821.41,760.341 1830.01,760.341 1838.6,760.341 1847.19,760.341 1855.79,760.341 1864.38,760.341 1872.97,760.341 1881.57,760.341 1890.16,760.341 1898.76,760.341 1907.35,760.341 1915.94,760.341 1924.54,760.341 1933.13,760.341 1941.72,760.341 1950.32,757.041 1958.91,751.702 1967.5,746.672 1976.1,741.877 1984.69,736.513 1993.28,731.708 2001.88,726.687 2010.47,721.452 2019.06,716.342 2027.66,711.007 2036.25,705.774 2044.85,700.627 2053.44,695.24 2062.03,689.927 2070.63,684.678 2079.22,679.18 2087.81,673.737 2096.41,668.044 2105,662.397 2113.59,656.791 2122.19,651.221 2130.78,645.392 2139.37,639.593 2147.97,633.821 2156.56,627.784 2165.16,621.769 2173.75,615.772 2182.34,609.791 2190.94,603.538 2199.53,597.298 2208.12,591.066 2216.72,584.841 2225.31,578.338 2233.9,571.839 2242.5,565.341 2251.09,558.842 2259.68,552.058 2268.28,545.271 2276.87,538.761 2285.47,531.678 2294.06,524.87 2302.65,517.768 2311.25,510.939 2319.84,503.813 2328.43,496.673 2337.03,489.231 2345.62,482.059 2354.21,474.583 2362.81,467.086 2371.4,459.569 2379.99,452.031 2388.59,444.18 2397.18,436.596 2405.77,428.695 2414.37,420.768 2422.96,412.813 2431.56,404.535 2440.15,396.523 2448.74,388.183 2457.34,379.811 2465.93,371.406 2474.52,362.967 2483.12,354.494 2491.71,345.682 2500.3,337.137 2508.9,328.25 2517.49,319.323 2526.08,310.356 2534.68,301.349 2543.27,291.988 2551.87,282.897 2560.46,273.449 2569.05,263.954 2577.65,254.414 2586.24,244.827 2594.83,235.193 2603.43,225.511 2612.02,215.456 2620.61,205.349 2629.21,195.518 2637.8,185.308 2646.39,175.043 2654.99,164.392 2663.58,154.017 2672.17,143.251 2680.77,132.764 2689.36,121.881 2697.96,110.938 2706.55,99.9337 2715.14,88.8688 2723.74,77.3937 2732.33,66.2035 2740.92,54.5981 2749.52,43.2805 2758.11,31.5429 2766.7,19.7373 2775.3,7.86339 2783.89,-4.44239 2792.48,-16.4567 2801.08,-28.5408 2809.67,-41.0646 2818.27,-53.6637 2826.86,-66.3384 2835.45,-79.0893 2844.05,-91.9169 2852.64,-104.822 2861.23,-118.187 2869.83,-131.25 2878.42,-144.78 2887.01,-158.393 2895.61,-172.091 2904.2,-185.874 2912.79,-199.742 2921.39,-213.697 2929.98,-228.14 2938.58,-242.271 2947.17,-256.897 2955.76,-271.617 2964.36,-286.43 2972.95,-301.338 2981.54,-316.341 2990.14,-331.86 2998.73,-347.057 3007.32,-362.778 "/>
<polyline clip-path="url(#clip933)" style="stroke:#fb9b06; stroke-linecap:round; stroke-linejoin:round; stroke-width:6; stroke-opacity:0.8; fill:none" points="1408.92,691.182 1417.52,691.182 1426.11,691.182 1434.7,691.182 1443.3,691.182 1451.89,691.182 1460.48,691.182 1469.08,691.182 1477.67,691.182 1486.26,691.182 1494.86,691.182 1503.45,691.182 1512.05,691.182 1520.64,691.182 1529.23,691.182 1537.83,691.182 1546.42,691.182 1555.01,691.182 1563.61,691.182 1572.2,691.182 1580.79,691.182 1589.39,691.182 1597.98,691.182 1606.57,691.182 1615.17,691.182 1623.76,691.182 1632.36,691.182 1640.95,691.182 1649.54,691.182 1658.14,691.182 1666.73,691.182 1675.32,691.182 1683.92,691.182 1692.51,691.182 1701.1,691.182 1709.7,691.182 1718.29,691.182 1726.88,691.182 1735.48,691.182 1744.07,691.182 1752.66,691.182 1761.26,691.182 1769.85,691.182 1778.45,691.182 1787.04,691.182 1795.63,691.182 1804.23,691.182 1812.82,691.182 1821.41,691.182 1830.01,691.182 1838.6,691.182 1847.19,691.182 1855.79,691.182 1864.38,691.182 1872.97,691.182 1881.57,691.182 1890.16,691.182 1898.76,691.182 1907.35,691.182 1915.94,691.182 1924.54,691.182 1933.13,691.182 1941.72,691.182 1950.32,686.456 1958.91,678.809 1967.5,671.606 1976.1,664.739 1984.69,657.057 1993.28,650.176 2001.88,642.984 2010.47,635.487 2019.06,628.169 2027.66,620.528 2036.25,613.033 2044.85,605.662 2053.44,597.948 2062.03,590.338 2070.63,582.82 2079.22,574.947 2087.81,567.152 2096.41,558.998 2105,550.911 2113.59,542.882 2122.19,534.905 2130.78,526.557 2139.37,518.252 2147.97,509.984 2156.56,501.339 2165.16,492.724 2173.75,484.136 2182.34,475.57 2190.94,466.615 2199.53,457.678 2208.12,448.753 2216.72,439.838 2225.31,430.525 2233.9,421.217 2242.5,411.91 2251.09,402.603 2259.68,392.888 2268.28,383.167 2276.87,373.844 2285.47,363.7 2294.06,353.95 2302.65,343.779 2311.25,333.998 2319.84,323.793 2328.43,313.567 2337.03,302.909 2345.62,292.638 2354.21,281.93 2362.81,271.194 2371.4,260.429 2379.99,249.633 2388.59,238.389 2397.18,227.527 2405.77,216.212 2414.37,204.859 2422.96,193.466 2431.56,181.61 2440.15,170.136 2448.74,158.192 2457.34,146.201 2465.93,134.164 2474.52,122.078 2483.12,109.944 2491.71,97.3234 2500.3,85.0864 2508.9,72.358 2517.49,59.5733 2526.08,46.7316 2534.68,33.832 2543.27,20.4259 2551.87,7.40611 2560.46,-6.12595 2569.05,-19.7232 2577.65,-33.3865 2586.24,-47.1166 2594.83,-60.9142 2603.43,-74.78 2612.02,-89.1805 2620.61,-103.655 2629.21,-117.735 2637.8,-132.358 2646.39,-147.058 2654.99,-162.313 2663.58,-177.171 2672.17,-192.591 2680.77,-207.609 2689.36,-223.195 2697.96,-238.868 2706.55,-254.627 2715.14,-270.474 2723.74,-286.908 2732.33,-302.935 2740.92,-319.555 2749.52,-335.764 2758.11,-352.574 2766.7,-369.482 2775.3,-386.487 2783.89,-404.111 2792.48,-421.317 2801.08,-438.623 2809.67,-456.56 2818.27,-474.604 2826.86,-492.756 2835.45,-511.017 2844.05,-529.388 2852.64,-547.87 2861.23,-567.012 2869.83,-585.72 2878.42,-605.096 2887.01,-624.593 2895.61,-644.21 2904.2,-663.95 2912.79,-683.812 2921.39,-703.797 2929.98,-724.482 2938.58,-744.72 2947.17,-765.667 2955.76,-786.747 2964.36,-807.962 2972.95,-829.313 2981.54,-850.799 2990.14,-873.025 2998.73,-894.791 3007.32,-917.305 "/>
<path clip-path="url(#clip930)" d="M2649.07 856.472 L3297.86 856.472 L3297.86 504.374 L2649.07 504.374  Z" fill="#000000" fill-rule="evenodd" fill-opacity="0"/>
<polyline clip-path="url(#clip930)" style="stroke:#000000; stroke-linecap:round; stroke-linejoin:round; stroke-width:4; stroke-opacity:0; fill:none" points="2649.07,856.472 3297.86,856.472 3297.86,504.374 2649.07,504.374 2649.07,856.472 "/>
<g clip-path="url(#clip930)">
<text style="fill:#000000; fill-opacity:1; font-family:Arial,Helvetica Neue,Helvetica,sans-serif; font-size:48px; text-anchor:end;" transform="rotate(0, 2979.4, 572.174)" x="2979.4" y="572.174">                  vaccine uptake</text>
</g>
<polyline clip-path="url(#clip930)" style="stroke:#000003; stroke-linecap:round; stroke-linejoin:round; stroke-width:6; stroke-opacity:0.8; fill:none" points="2660.93,604.974 2732.14,604.974 "/>
<g clip-path="url(#clip930)">
<text style="fill:#000000; fill-opacity:1; font-family:Arial,Helvetica Neue,Helvetica,sans-serif; font-size:48px; text-anchor:start;" transform="rotate(0, 2744.01, 622.474)" x="2744.01" y="622.474">0%</text>
</g>
<polyline clip-path="url(#clip930)" style="stroke:#3e0966; stroke-linecap:round; stroke-linejoin:round; stroke-width:6; stroke-opacity:0.8; fill:none" points="2660.93,655.273 2732.14,655.273 "/>
<g clip-path="url(#clip930)">
<text style="fill:#000000; fill-opacity:1; font-family:Arial,Helvetica Neue,Helvetica,sans-serif; font-size:48px; text-anchor:start;" transform="rotate(0, 2744.01, 672.773)" x="2744.01" y="672.773">10%</text>
</g>
<polyline clip-path="url(#clip930)" style="stroke:#8e2468; stroke-linecap:round; stroke-linejoin:round; stroke-width:6; stroke-opacity:0.8; fill:none" points="2660.93,705.573 2732.14,705.573 "/>
<g clip-path="url(#clip930)">
<text style="fill:#000000; fill-opacity:1; font-family:Arial,Helvetica Neue,Helvetica,sans-serif; font-size:48px; text-anchor:start;" transform="rotate(0, 2744.01, 723.073)" x="2744.01" y="723.073">30%</text>
</g>
<polyline clip-path="url(#clip930)" style="stroke:#d74b3e; stroke-linecap:round; stroke-linejoin:round; stroke-width:6; stroke-opacity:0.8; fill:none" points="2660.93,755.873 2732.14,755.873 "/>
<g clip-path="url(#clip930)">
<text style="fill:#000000; fill-opacity:1; font-family:Arial,Helvetica Neue,Helvetica,sans-serif; font-size:48px; text-anchor:start;" transform="rotate(0, 2744.01, 773.373)" x="2744.01" y="773.373">50%</text>
</g>
<polyline clip-path="url(#clip930)" style="stroke:#fb9b06; stroke-linecap:round; stroke-linejoin:round; stroke-width:6; stroke-opacity:0.8; fill:none" points="2660.93,806.173 2732.14,806.173 "/>
<g clip-path="url(#clip930)">
<text style="fill:#000000; fill-opacity:1; font-family:Arial,Helvetica Neue,Helvetica,sans-serif; font-size:48px; text-anchor:start;" transform="rotate(0, 2744.01, 823.673)" x="2744.01" y="823.673">70%</text>
</g>
</svg>
